<mxfile host="app.diagrams.net" agent="Mozilla/5.0 (Windows NT 10.0; Win64; x64) AppleWebKit/537.36 (KHTML, like Gecko) Chrome/132.0.0.0 Safari/537.36" version="26.0.10">
  <diagram name="Page-1" id="_lXIfYCNIc4S8hdjQfiI">
    <mxGraphModel dx="1050" dy="565" grid="1" gridSize="10" guides="1" tooltips="1" connect="1" arrows="1" fold="1" page="1" pageScale="1" pageWidth="850" pageHeight="1100" math="0" shadow="0">
      <root>
        <mxCell id="0" />
        <mxCell id="1" parent="0" />
        <mxCell id="I4OJFFzY9877kSVY4KyF-1" value="Load hard-coded&lt;div&gt;&amp;nbsp;data&lt;/div&gt;" style="rounded=1;whiteSpace=wrap;html=1;" parent="1" vertex="1">
          <mxGeometry x="360" y="140" width="120" height="60" as="geometry" />
        </mxCell>
        <mxCell id="I4OJFFzY9877kSVY4KyF-2" value="Update ParkingLocation objects with updated data" style="rounded=1;whiteSpace=wrap;html=1;" parent="1" vertex="1">
          <mxGeometry x="360" y="390" width="120" height="80" as="geometry" />
        </mxCell>
        <mxCell id="I4OJFFzY9877kSVY4KyF-3" value="Query Database" style="rounded=1;whiteSpace=wrap;html=1;" parent="1" vertex="1">
          <mxGeometry x="360" y="650" width="120" height="60" as="geometry" />
        </mxCell>
        <mxCell id="I4OJFFzY9877kSVY4KyF-4" value="Query Database" style="rhombus;whiteSpace=wrap;html=1;" parent="1" vertex="1">
          <mxGeometry x="360" y="260" width="120" height="80" as="geometry" />
        </mxCell>
        <mxCell id="I4OJFFzY9877kSVY4KyF-5" value="" style="endArrow=classic;html=1;rounded=0;entryX=0.5;entryY=0;entryDx=0;entryDy=0;" parent="1" target="I4OJFFzY9877kSVY4KyF-1" edge="1">
          <mxGeometry width="50" height="50" relative="1" as="geometry">
            <mxPoint x="420" y="100" as="sourcePoint" />
            <mxPoint x="450" y="300" as="targetPoint" />
          </mxGeometry>
        </mxCell>
        <mxCell id="I4OJFFzY9877kSVY4KyF-6" value="Timeout?" style="rhombus;whiteSpace=wrap;html=1;" parent="1" vertex="1">
          <mxGeometry x="580" y="260" width="80" height="80" as="geometry" />
        </mxCell>
        <mxCell id="I4OJFFzY9877kSVY4KyF-7" value="User on ParkingLocation Info Screen?" style="rhombus;whiteSpace=wrap;html=1;" parent="1" vertex="1">
          <mxGeometry x="360" y="520" width="120" height="80" as="geometry" />
        </mxCell>
        <mxCell id="I4OJFFzY9877kSVY4KyF-8" value="" style="endArrow=classic;html=1;rounded=0;entryX=0.5;entryY=0;entryDx=0;entryDy=0;exitX=0.5;exitY=1;exitDx=0;exitDy=0;" parent="1" source="I4OJFFzY9877kSVY4KyF-1" target="I4OJFFzY9877kSVY4KyF-4" edge="1">
          <mxGeometry width="50" height="50" relative="1" as="geometry">
            <mxPoint x="350" y="490" as="sourcePoint" />
            <mxPoint x="400" y="440" as="targetPoint" />
          </mxGeometry>
        </mxCell>
        <mxCell id="I4OJFFzY9877kSVY4KyF-9" value="Fail" style="endArrow=classic;html=1;rounded=0;entryX=0;entryY=0.5;entryDx=0;entryDy=0;exitX=1;exitY=0.5;exitDx=0;exitDy=0;" parent="1" source="I4OJFFzY9877kSVY4KyF-4" target="I4OJFFzY9877kSVY4KyF-6" edge="1">
          <mxGeometry width="50" height="50" relative="1" as="geometry">
            <mxPoint x="350" y="490" as="sourcePoint" />
            <mxPoint x="400" y="440" as="targetPoint" />
          </mxGeometry>
        </mxCell>
        <mxCell id="I4OJFFzY9877kSVY4KyF-10" value="No" style="endArrow=classic;html=1;rounded=0;exitX=0.5;exitY=0;exitDx=0;exitDy=0;" parent="1" source="I4OJFFzY9877kSVY4KyF-6" edge="1">
          <mxGeometry width="50" height="50" relative="1" as="geometry">
            <mxPoint x="620" y="220" as="sourcePoint" />
            <mxPoint x="420" y="220" as="targetPoint" />
            <Array as="points">
              <mxPoint x="620" y="220" />
            </Array>
          </mxGeometry>
        </mxCell>
        <mxCell id="I4OJFFzY9877kSVY4KyF-11" value="Success" style="endArrow=classic;html=1;rounded=0;entryX=0.5;entryY=0;entryDx=0;entryDy=0;exitX=0.5;exitY=1;exitDx=0;exitDy=0;" parent="1" source="I4OJFFzY9877kSVY4KyF-4" target="I4OJFFzY9877kSVY4KyF-2" edge="1">
          <mxGeometry width="50" height="50" relative="1" as="geometry">
            <mxPoint x="350" y="490" as="sourcePoint" />
            <mxPoint x="400" y="440" as="targetPoint" />
          </mxGeometry>
        </mxCell>
        <mxCell id="I4OJFFzY9877kSVY4KyF-12" value="" style="endArrow=classic;html=1;rounded=0;entryX=0.5;entryY=0;entryDx=0;entryDy=0;exitX=0.5;exitY=1;exitDx=0;exitDy=0;" parent="1" source="I4OJFFzY9877kSVY4KyF-2" target="I4OJFFzY9877kSVY4KyF-7" edge="1">
          <mxGeometry width="50" height="50" relative="1" as="geometry">
            <mxPoint x="350" y="470" as="sourcePoint" />
            <mxPoint x="400" y="420" as="targetPoint" />
          </mxGeometry>
        </mxCell>
        <mxCell id="I4OJFFzY9877kSVY4KyF-13" value="Yes" style="endArrow=classic;html=1;rounded=0;exitX=0.5;exitY=1;exitDx=0;exitDy=0;" parent="1" source="I4OJFFzY9877kSVY4KyF-6" edge="1">
          <mxGeometry width="50" height="50" relative="1" as="geometry">
            <mxPoint x="350" y="470" as="sourcePoint" />
            <mxPoint x="420" y="500" as="targetPoint" />
            <Array as="points">
              <mxPoint x="620" y="500" />
            </Array>
          </mxGeometry>
        </mxCell>
        <mxCell id="I4OJFFzY9877kSVY4KyF-14" value="Yes" style="endArrow=classic;html=1;rounded=0;entryX=0.5;entryY=0;entryDx=0;entryDy=0;exitX=0.5;exitY=1;exitDx=0;exitDy=0;" parent="1" source="I4OJFFzY9877kSVY4KyF-7" target="I4OJFFzY9877kSVY4KyF-3" edge="1">
          <mxGeometry width="50" height="50" relative="1" as="geometry">
            <mxPoint x="350" y="520" as="sourcePoint" />
            <mxPoint x="400" y="470" as="targetPoint" />
          </mxGeometry>
        </mxCell>
        <mxCell id="I4OJFFzY9877kSVY4KyF-15" value="" style="endArrow=classic;html=1;rounded=0;exitX=0.5;exitY=1;exitDx=0;exitDy=0;" parent="1" edge="1" source="I4OJFFzY9877kSVY4KyF-3">
          <mxGeometry width="50" height="50" relative="1" as="geometry">
            <mxPoint x="405" y="710" as="sourcePoint" />
            <mxPoint x="420" y="500" as="targetPoint" />
            <Array as="points">
              <mxPoint x="420" y="760" />
              <mxPoint x="265" y="760" />
              <mxPoint x="265" y="500" />
            </Array>
          </mxGeometry>
        </mxCell>
        <mxCell id="I4OJFFzY9877kSVY4KyF-16" value="No" style="endArrow=classic;html=1;rounded=0;exitX=0;exitY=0.5;exitDx=0;exitDy=0;" parent="1" source="I4OJFFzY9877kSVY4KyF-7" edge="1">
          <mxGeometry width="50" height="50" relative="1" as="geometry">
            <mxPoint x="350" y="740" as="sourcePoint" />
            <mxPoint x="320" y="500" as="targetPoint" />
            <Array as="points">
              <mxPoint x="320" y="560" />
            </Array>
          </mxGeometry>
        </mxCell>
        <mxCell id="I4OJFFzY9877kSVY4KyF-18" value="APP START" style="rounded=0;whiteSpace=wrap;html=1;" parent="1" vertex="1">
          <mxGeometry x="380" y="70" width="80" height="30" as="geometry" />
        </mxCell>
      </root>
    </mxGraphModel>
  </diagram>
</mxfile>
